<?xml version="1.0" standalone="no"?>
<!DOCTYPE svg PUBLIC "-//W3C//DTD SVG 20010904//EN"
 "http://www.w3.org/TR/2001/REC-SVG-20010904/DTD/svg10.dtd">
<svg version="1.0" xmlns="http://www.w3.org/2000/svg"
 width="500.000000pt" height="500.000000pt" viewBox="0 0 500.000000 500.000000"
 preserveAspectRatio="xMidYMid meet">

<g transform="translate(0.000000,500.000000) scale(0.100000,-0.100000)"
fill="#fffff" stroke="none">
<path d="M2481 3590 l-13 -50 -56 0 -57 -1 25 -19 c14 -10 33 -25 44 -33 17
-13 18 -17 3 -65 l-15 -51 43 29 c24 17 46 30 48 30 2 0 21 -14 42 -30 21 -17
40 -28 43 -26 2 3 -3 23 -12 46 -9 22 -16 44 -16 49 0 4 19 21 42 37 l42 29
-54 5 -54 5 -15 48 c-8 26 -17 47 -21 47 -3 0 -12 -22 -19 -50z"/>
<path d="M2224 3369 c-8 -28 -16 -35 -44 -40 -19 -4 -30 -7 -25 -8 6 -1 18 -8
27 -15 14 -10 16 -19 8 -45 l-9 -31 28 16 c26 15 30 15 54 -1 29 -18 35 -9 17
25 -8 15 -4 22 18 39 l27 20 -33 1 c-22 0 -34 6 -38 18 -18 55 -20 56 -30 21z"/>
<path d="M2754 3369 c-8 -29 -15 -34 -42 -37 l-33 -3 25 -20 c21 -17 24 -24
16 -45 -14 -36 -13 -37 18 -18 27 15 31 15 55 -1 30 -19 31 -18 17 19 -8 21
-5 28 18 45 l27 20 -33 1 c-22 0 -34 6 -38 18 -18 55 -20 56 -30 21z"/>
<path d="M2570 3176 c8 -10 15 -25 17 -34 1 -9 7 -18 13 -20 5 -2 7 -9 4 -14
-4 -7 -2 -8 5 -4 6 4 8 12 5 18 -5 8 -1 9 11 4 15 -5 16 -4 5 9 -11 13 -15 13
-21 3 -8 -11 -13 -5 -11 13 1 4 -9 15 -21 25 -21 18 -21 18 -7 0z"/>
<path d="M2386 3152 c-3 -5 1 -9 9 -9 8 0 12 4 9 9 -3 4 -7 8 -9 8 -2 0 -6 -4
-9 -8z"/>
<path d="M2383 3112 c-8 -14 -8 -19 1 -19 7 0 13 9 13 19 1 10 1 18 0 18 -1 0
-7 -8 -14 -18z"/>
<path d="M2330 3100 c-9 -6 -10 -10 -3 -10 6 0 15 5 18 10 8 12 4 12 -15 0z"/>
<path d="M2626 3101 c-3 -4 4 -7 14 -6 27 2 33 10 10 12 -11 1 -22 -2 -24 -6z"/>
<path d="M1770 2930 c0 -5 5 -43 11 -84 l11 -74 44 -11 c23 -6 44 -11 46 -11
2 0 2 26 0 59 -4 58 -3 59 25 63 44 6 62 -1 69 -28 8 -30 -11 -54 -42 -54 -13
0 -24 -4 -24 -9 0 -5 -2 -16 -5 -23 -4 -10 10 -19 48 -31 143 -45 366 -178
465 -277 40 -39 40 -34 1 32 -75 129 -205 252 -364 345 -109 65 -285 128 -285
103z"/>
<path d="M3134 2926 c-74 -23 -169 -78 -309 -178 -64 -46 -201 -185 -240 -243
-54 -82 -55 -95 -4 -52 187 159 348 248 540 299 86 23 84 20 96 128 6 59 5 60
-18 59 -13 0 -42 -6 -65 -13z m-8 -81 c8 -31 -10 -55 -41 -55 -14 0 -25 -7
-28 -20 -10 -40 -25 -19 -29 40 l-3 60 47 0 c42 0 48 -3 54 -25z"/>
<path d="M3062 2833 c4 -21 33 -25 33 -3 0 8 -8 16 -18 18 -14 3 -18 -1 -15
-15z"/>
<path d="M1910 2836 c0 -17 27 -29 35 -16 4 6 3 15 0 20 -9 15 -35 12 -35 -4z"/>
<path d="M1644 2708 c4 -29 11 -69 16 -89 l10 -36 110 -7 c250 -15 476 -78
620 -172 l55 -36 -45 47 c-152 157 -551 345 -733 345 l-40 0 7 -52z m236 -18
c0 -5 -13 -7 -29 -4 -23 5 -32 2 -41 -16 -9 -16 -9 -25 1 -36 13 -16 49 -19
49 -4 0 6 -7 10 -16 10 -9 0 -14 6 -12 12 3 7 15 13 29 13 18 0 25 -6 27 -24
7 -45 -53 -68 -90 -34 -21 19 -24 75 -5 91 28 22 87 17 87 -8z"/>
<path d="M3200 2745 c-193 -47 -476 -196 -604 -317 -51 -49 -41 -50 35 -2 129
81 344 137 589 152 l105 7 17 60 c9 33 17 72 17 88 1 26 -1 27 -51 26 -29 0
-78 -7 -108 -14z m8 -50 c-2 -6 -13 -9 -24 -7 -27 3 -47 -21 -39 -48 7 -21 55
-30 55 -10 0 6 -7 10 -15 10 -8 0 -15 7 -15 15 0 9 10 15 26 15 22 0 25 -4 22
-31 -4 -38 -26 -54 -61 -45 -55 13 -61 96 -9 114 29 10 65 2 60 -13z"/>
<path d="M1517 2543 c-7 -11 7 -67 30 -126 l16 -38 156 7 c158 6 330 -4 511
-30 52 -8 124 -17 160 -21 l65 -7 -25 19 c-44 34 -173 100 -249 127 -40 14
-128 36 -195 47 -136 23 -459 38 -469 22z m263 -32 c0 -5 -9 -11 -20 -14 -16
-4 -20 -14 -20 -52 0 -55 -24 -59 -26 -4 -2 56 -3 59 -19 59 -8 0 -15 5 -15
10 0 6 23 10 50 10 28 0 50 -4 50 -9z"/>
<path d="M3120 2539 c-110 -13 -224 -38 -294 -64 -132 -50 -306 -144 -266
-145 8 0 101 12 205 27 159 22 230 26 430 28 l240 1 27 69 c15 39 27 76 28 83
0 14 -246 15 -370 1z m210 -29 c0 -5 -9 -10 -20 -10 -17 0 -20 -7 -20 -51 0
-66 -24 -62 -28 4 -2 33 -7 47 -18 47 -7 0 -14 5 -14 10 0 6 23 10 50 10 28 0
50 -4 50 -10z"/>
<path d="M1619 1953 c-13 -16 -12 -17 4 -4 9 7 17 15 17 17 0 8 -8 3 -21 -13z"/>
<path d="M1065 1950 c-3 -6 -3 -20 0 -31 5 -15 4 -19 -4 -15 -6 4 -11 3 -11
-3 0 -5 5 -13 10 -16 6 -4 7 -12 3 -18 -3 -7 3 -3 15 7 25 21 31 36 7 16 -18
-15 -20 1 -3 18 9 9 9 12 -1 12 -8 0 -11 7 -8 20 6 22 2 26 -8 10z"/>
<path d="M1090 1946 c0 -8 4 -17 9 -20 5 -4 7 3 4 14 -6 23 -13 26 -13 6z"/>
<path d="M1211 1944 c0 -11 3 -14 6 -6 3 7 2 16 -1 19 -3 4 -6 -2 -5 -13z"/>
<path d="M1233 1920 c0 -25 2 -35 4 -22 2 12 2 32 0 45 -2 12 -4 2 -4 -23z"/>
<path d="M1570 1951 c0 -6 4 -13 10 -16 6 -3 7 1 4 9 -7 18 -14 21 -14 7z"/>
<path d="M2129 1958 c-1 -2 -3 -13 -4 -25 -3 -26 13 -31 21 -8 4 8 11 12 17 8
6 -3 7 -1 3 6 -6 9 -11 9 -24 -1 -13 -11 -15 -10 -9 5 5 13 1 26 -4 15z"/>
<path d="M2303 1946 c1 -11 9 -21 17 -24 8 -3 12 -1 8 3 -4 5 -2 15 5 24 10
14 10 14 -5 3 -13 -10 -17 -10 -22 0 -3 7 -5 4 -3 -6z"/>
<path d="M2625 1949 c-4 -6 -5 -12 -2 -15 2 -3 7 2 10 11 7 17 1 20 -8 4z"/>
<path d="M2650 1940 c-9 -6 -10 -10 -3 -10 6 0 15 5 18 10 8 12 4 12 -15 0z"/>
<path d="M3043 1935 c-16 -17 -17 -55 -2 -55 5 0 7 -5 3 -11 -8 -13 -20 -1
-27 26 -5 19 -5 19 -6 -1 0 -11 9 -30 20 -43 18 -19 20 -27 10 -49 -11 -26
-11 -26 4 -7 10 12 14 29 10 43 -3 13 0 30 6 39 10 11 10 13 -1 11 -7 -2 -15
3 -18 11 -2 8 -1 11 4 8 5 -3 10 6 10 19 1 13 1 24 0 24 0 -1 -7 -7 -13 -15z"/>
<path d="M2366 1924 c-8 -20 -8 -24 2 -24 4 0 8 9 9 20 2 24 -3 26 -11 4z"/>
<path d="M2790 1935 c0 -12 20 -35 31 -35 4 0 9 10 12 23 6 20 5 21 -8 4 -13
-18 -14 -18 -24 0 -6 10 -11 13 -11 8z"/>
<path d="M1595 1922 c-7 -4 -3 -15 10 -29 20 -20 21 -21 22 -3 1 11 -4 19 -10
17 -7 -1 -11 4 -9 11 2 14 1 14 -13 4z"/>
<path d="M2597 1923 c-4 -3 -7 -11 -7 -17 0 -6 5 -5 12 2 6 6 9 14 7 17 -3 3
-9 2 -12 -2z"/>
<path d="M1663 1905 c-6 -7 -9 -16 -6 -19 4 -3 1 -6 -4 -6 -13 0 -12 -23 1
-30 5 -3 10 6 11 18 1 13 7 27 14 32 7 4 9 10 5 13 -5 3 -14 -1 -21 -8z"/>
<path d="M2178 1902 c5 -14 3 -15 -10 -4 -13 10 -17 10 -21 -2 -3 -8 2 -20 11
-28 15 -12 16 -11 3 5 -13 16 -12 18 12 13 20 -3 25 -1 20 11 -5 12 -3 14 8 8
8 -5 11 -4 6 0 -15 17 -36 14 -29 -3z"/>
<path d="M1007 1899 c7 -7 15 -10 18 -7 3 3 -2 9 -12 12 -14 6 -15 5 -6 -5z"/>
<path d="M2029 1878 c4 -28 6 -29 9 -9 2 13 0 27 -5 32 -6 6 -7 -3 -4 -23z"/>
<path d="M2850 1900 c-13 -8 -12 -10 3 -10 9 0 17 5 17 10 0 12 -1 12 -20 0z"/>
<path d="M965 1890 c-3 -6 1 -7 9 -4 18 7 21 14 7 14 -6 0 -13 -4 -16 -10z"/>
<path d="M2217 1885 c-4 -8 -3 -16 1 -19 4 -3 9 4 9 15 2 23 -3 25 -10 4z"/>
<path d="M4008 1893 c6 -2 18 -2 25 0 6 3 1 5 -13 5 -14 0 -19 -2 -12 -5z"/>
<path d="M1680 1880 c-11 -7 -12 -12 -4 -20 8 -8 13 -6 17 9 3 12 4 21 4 21
-1 0 -9 -5 -17 -10z"/>
<path d="M1000 1864 c-11 -12 -11 -15 1 -12 8 2 13 -3 11 -10 -1 -8 2 -11 8
-7 8 5 8 11 1 19 -6 7 -8 16 -4 19 3 4 4 7 1 7 -3 0 -11 -7 -18 -16z"/>
<path d="M848 1863 c12 -2 32 -2 45 0 12 2 2 4 -23 4 -25 0 -35 -2 -22 -4z"/>
<path d="M1715 1850 c10 -11 20 -20 23 -20 3 0 -3 9 -13 20 -10 11 -20 20 -23
20 -3 0 3 -9 13 -20z"/>
<path d="M2185 1860 c3 -5 8 -10 11 -10 2 0 4 5 4 10 0 6 -5 10 -11 10 -5 0
-7 -4 -4 -10z"/>
<path d="M2290 1859 c0 -5 5 -7 10 -4 6 3 10 8 10 11 0 2 -4 4 -10 4 -5 0 -10
-5 -10 -11z"/>
<path d="M3065 1850 c3 -5 8 -10 11 -10 2 0 4 5 4 10 0 6 -5 10 -11 10 -5 0
-7 -4 -4 -10z"/>
<path d="M2203 1836 c-3 -6 -3 -8 2 -4 4 4 15 2 23 -4 7 -7 23 -13 34 -15 19
-3 19 -2 2 14 -20 21 -52 25 -61 9z m47 -6 c0 -5 -2 -10 -4 -10 -3 0 -8 5 -11
10 -3 6 -1 10 4 10 6 0 11 -4 11 -10z"/>
<path d="M1661 1831 c-9 -6 -10 -11 -2 -15 6 -4 11 -2 11 4 0 7 7 5 16 -4 23
-23 30 -20 9 4 -10 11 -19 20 -19 20 -1 0 -7 -4 -15 -9z"/>
<path d="M2296 1832 c-3 -5 1 -9 9 -9 8 0 12 4 9 9 -3 4 -7 8 -9 8 -2 0 -6 -4
-9 -8z"/>
<path d="M2666 1813 c-6 -14 -5 -15 5 -6 7 7 10 15 7 18 -3 3 -9 -2 -12 -12z"/>
<path d="M2896 1814 c-8 -22 -8 -44 2 -44 4 0 7 14 8 30 1 34 -1 37 -10 14z"/>
<path d="M1730 1810 c-10 -64 -2 -92 18 -60 9 14 9 19 1 18 -6 -2 -14 3 -17
11 -2 8 0 11 6 7 6 -3 14 -1 18 5 4 7 3 9 -4 5 -6 -3 -13 2 -15 11 -4 14 -5
14 -7 3z"/>
<path d="M3100 1816 c0 -2 7 -7 16 -10 8 -3 12 -2 9 4 -6 10 -25 14 -25 6z"/>
<path d="M2300 1801 c0 -6 4 -13 10 -16 6 -3 7 1 4 9 -7 18 -14 21 -14 7z"/>
<path d="M2022 1765 c-2 -44 11 -75 22 -56 4 6 3 11 -3 11 -5 0 -12 19 -14 43
l-4 42 -1 -40z"/>
<path d="M2245 1790 c-4 -6 -11 -8 -16 -5 -16 10 -10 -2 9 -16 9 -7 14 -9 10
-5 -4 5 -3 15 3 23 6 7 9 13 6 13 -3 0 -9 -5 -12 -10z"/>
<path d="M2805 1790 c-3 -5 -1 -10 4 -10 6 0 11 5 11 10 0 6 -2 10 -4 10 -3 0
-8 -4 -11 -10z"/>
<path d="M2844 1780 c0 -13 4 -16 10 -10 7 7 7 13 0 20 -6 6 -10 3 -10 -10z"/>
<path d="M2293 1774 c18 -21 18 -22 -4 -38 -23 -15 -23 -15 9 -11 37 4 43 -11
10 -26 l-23 -10 23 5 c12 2 22 0 22 -5 0 -5 5 -9 11 -9 6 0 7 5 2 13 -4 6 -8
19 -8 27 0 8 -6 14 -14 12 -8 -2 -11 3 -8 12 3 8 -4 22 -16 33 -22 18 -22 18
-4 -3z"/>
<path d="M3088 1772 c-11 -15 -11 -15 2 -6 8 6 23 10 33 8 11 -1 16 0 13 4
-13 12 -36 10 -48 -6z"/>
<path d="M3335 1771 c-3 -5 -2 -12 3 -15 5 -3 9 1 9 9 0 17 -3 19 -12 6z"/>
<path d="M2870 1756 c0 -8 4 -17 9 -20 5 -4 7 3 4 14 -6 23 -13 26 -13 6z"/>
<path d="M3143 1762 c-8 -5 -6 -13 6 -28 15 -19 19 -20 36 -8 14 10 15 14 4
14 -12 0 -12 2 1 10 21 13 3 13 -22 -1 -18 -10 -20 -9 -15 5 7 18 7 19 -10 8z"/>
<path d="M3060 1750 c0 -5 5 -10 11 -10 5 0 7 5 4 10 -3 6 -8 10 -11 10 -2 0
-4 -4 -4 -10z"/>
<path d="M3636 1744 c-8 -22 -8 -24 6 -24 6 0 8 3 5 7 -4 3 -2 12 4 20 7 8 8
13 1 13 -5 0 -13 -7 -16 -16z"/>
<path d="M1230 1735 c0 -5 5 -17 10 -25 5 -8 10 -10 10 -5 0 6 -5 17 -10 25
-5 8 -10 11 -10 5z"/>
<path d="M3115 1729 c-4 -6 -13 -8 -21 -5 -22 9 -16 -2 9 -15 12 -6 19 -8 15
-4 -4 5 -3 14 3 22 6 7 9 13 6 13 -3 0 -9 -5 -12 -11z"/>
<path d="M3356 1728 c3 -5 10 -6 15 -3 13 9 11 12 -6 12 -8 0 -12 -4 -9 -9z"/>
<path d="M3395 1729 c-4 -6 -5 -12 -2 -15 2 -3 7 2 10 11 7 17 1 20 -8 4z"/>
<path d="M4185 1730 c-3 -6 1 -7 9 -4 18 7 21 14 7 14 -6 0 -13 -4 -16 -10z"/>
<path d="M4261 1714 c0 -11 3 -14 6 -6 3 7 2 16 -1 19 -3 4 -6 -2 -5 -13z"/>
<path d="M746 1703 c5 -5 12 -12 16 -18 4 -6 8 -2 8 8 0 9 -7 17 -17 17 -9 0
-12 -3 -7 -7z"/>
<path d="M1981 1694 c0 -11 3 -14 6 -6 3 7 2 16 -1 19 -3 4 -6 -2 -5 -13z"/>
<path d="M3130 1696 c0 -2 7 -7 16 -10 8 -3 12 -2 9 4 -6 10 -25 14 -25 6z"/>
<path d="M3206 1692 c-3 -5 1 -9 9 -9 8 0 12 4 9 9 -3 4 -7 8 -9 8 -2 0 -6 -4
-9 -8z"/>
<path d="M3282 1354 c10 -10 20 -16 22 -13 3 3 -5 11 -17 18 -21 13 -21 12 -5
-5z"/>
<path d="M1678 1353 c7 -3 16 -2 19 1 4 3 -2 6 -13 5 -11 0 -14 -3 -6 -6z"/>
</g>
</svg>
